<?xml version="1.0" encoding="UTF-8" standalone="no"?>
<svg xmlns:svg="http://www.w3.org/2000/svg"
     xmlns="http://www.w3.org/2000/svg"
     viewBox="0 0 64 64"
     id="svg2"
     version="1.1">

    <g fill="none" fill-rule="evenodd" id="g6">
        <path d="M0 0h64v64H0z" fill="#8DD02E" id="path8"/>
    </g>
    <path d="m 54.711864,15.893814 -11.220339,2.283339 3.209017,3.194057 -10.006672,10.019763 -5.61204,-5.61391 -13.718734,13.542949 2.636779,2.65174 11.074475,-10.909909 5.593339,5.597079 12.680853,-12.645322 3.117384,3.104294 2.245938,-11.22408 z m -31.211243,12.112356 -6.137525,-6.057113 2.636779,-2.65174 6.167447,6.075814 -2.666701,2.633039 z m 28.967175,6.146876 2.244068,11.222209 -11.220339,-2.283339 3.209017,-3.194056 -3.98322,-3.988831 2.638649,-2.633039 3.994441,3.98135 3.117384,-3.104294 z m 2.244068,15.298932 0,3.740113 -44.8813557,0 0,-41.141244 3.7401127,0 0,37.401131 41.141243,0 z"
          id="path4-3"
          style="fill:#ffffff"/>
</svg>
